<svg width="11" height="7" viewBox="0 0 11 7" fill="none" xmlns="http://www.w3.org/2000/svg">
<path id="Vector" d="M5.77851 6.1688C5.68782 6.1688 5.60759 6.13392 5.53784 6.06416L0.66165 1.18797C0.59189 1.11821 0.557011 1.03799 0.557011 0.947302C0.557011 0.856614 0.59189 0.776391 0.66165 0.706631L1.18484 0.183436C1.2546 0.113676 1.33483 0.0787964 1.42552 0.0787964C1.5162 0.0787964 1.59643 0.113676 1.66619 0.183436L5.77851 4.29576L9.89082 0.183436C9.96058 0.113676 10.0408 0.0787964 10.1315 0.0787964C10.2222 0.0787964 10.3024 0.113676 10.3722 0.183436L10.8954 0.706631C10.9651 0.776391 11 0.856614 11 0.947302C11 1.03799 10.9651 1.11821 10.8954 1.18797L6.01918 6.06416C5.94942 6.13392 5.86919 6.1688 5.77851 6.1688Z" fill="#121D28"/>
</svg>
