<svg width="58" height="63" viewBox="0 0 58 63" fill="none" xmlns="http://www.w3.org/2000/svg">
<path d="M45.1113 58.2894H2.14816C0.859263 58.2894 0 59.1487 0 60.4376C0 61.7265 0.859263 62.5857 2.14816 62.5857H45.1113C46.4002 62.5857 47.2595 61.7265 47.2595 60.4376C47.2595 59.1487 46.4002 58.2894 45.1113 58.2894Z" fill="#A32B2A"/>
<path d="M49.4079 21.7707C47.9042 21.7707 46.4005 22.2003 45.1116 23.0596V21.7707C45.1116 20.4818 44.2523 19.6226 42.9634 19.6226H4.2966C3.0077 19.6226 2.14844 20.4818 2.14844 21.7707V35.0893C2.14844 46.6893 11.8151 56.1412 23.63 56.1412C32.6523 56.1412 40.3856 50.7708 43.6079 43.0375C45.1116 44.5412 47.0449 45.4004 49.4079 45.4004C54.1339 45.4004 58.0005 41.5338 58.0005 36.8078V30.3633C58.0005 25.6374 54.1339 21.7707 49.4079 21.7707ZM53.7042 36.8078C53.7042 39.1708 51.7709 41.1041 49.4079 41.1041C47.0449 41.1041 45.1116 39.1708 45.1116 36.8078V35.0893V30.3633C45.1116 28.0004 47.0449 26.067 49.4079 26.067C51.7709 26.067 53.7042 28.0004 53.7042 30.3633V36.8078Z" fill="#A32B2A"/>
<path d="M23.6294 17.4745C24.059 17.4745 24.4886 17.2597 24.9183 17.0449C25.9923 16.4005 26.2072 15.1116 25.5627 14.0375C23.4145 10.8153 23.4145 6.73376 25.5627 3.51152C26.2072 2.43745 25.9923 1.14855 24.9183 0.504103C23.8442 -0.140344 22.5553 0.0744716 21.9108 1.14855C18.9034 5.8745 18.9034 11.8893 21.9108 16.4005C22.3405 17.0449 22.9849 17.4745 23.6294 17.4745Z" fill="#A32B2A"/>
<path d="M15.0366 17.4746C15.4662 17.4746 15.8959 17.2597 16.3255 17.0449C17.3996 16.4005 17.6144 15.1116 16.9699 14.0375C14.8218 10.8153 14.8218 6.73378 16.9699 3.51154C17.6144 2.43746 17.3996 1.14857 16.3255 0.504122C15.2514 0.074491 13.9625 0.289307 13.3181 1.14857C10.3106 5.87452 10.3106 11.8894 13.3181 16.4005C13.7477 17.0449 14.3921 17.4746 15.0366 17.4746Z" fill="#A32B2A"/>
<path d="M32.2231 17.4745C32.6527 17.4745 33.0824 17.2597 33.512 17.0449C34.5861 16.4005 34.8009 15.1116 34.1565 14.0375C32.0083 10.8153 32.0083 6.73376 34.1565 3.51152C34.8009 2.43745 34.5861 1.14855 33.512 0.504103C32.4379 -0.140344 31.149 0.0744716 30.5046 1.14855C27.4972 5.8745 27.4972 11.8893 30.5046 16.4005C30.9342 17.0449 31.5787 17.4745 32.2231 17.4745Z" fill="#A32B2A"/>
</svg>
