<svg width="32" height="54" viewBox="0 0 32 54" fill="none" xmlns="http://www.w3.org/2000/svg">
<path id="Vector" d="M21.3333 24.3333H18.6667V13.6666H24C24.7072 13.6666 25.3855 13.9476 25.8856 14.4477C26.3857 14.9478 26.6667 15.6261 26.6667 16.3333C26.6667 17.0406 26.9476 17.7188 27.4477 18.2189C27.9478 18.719 28.6261 19 29.3333 19C30.0406 19 30.7189 18.719 31.219 18.2189C31.7191 17.7188 32 17.0406 32 16.3333C32 14.2116 31.1571 12.1767 29.6569 10.6765C28.1566 9.17617 26.1217 8.33331 24 8.33331H18.6667V2.99998C18.6667 2.29274 18.3857 1.61446 17.8856 1.11436C17.3855 0.614264 16.7072 0.333313 16 0.333313C15.2928 0.333313 14.6145 0.614264 14.1144 1.11436C13.6143 1.61446 13.3333 2.29274 13.3333 2.99998V8.33331H10.6667C7.83769 8.33331 5.12458 9.45712 3.12419 11.4575C1.12381 13.4579 0 16.171 0 19C0 21.829 1.12381 24.5421 3.12419 26.5425C5.12458 28.5428 7.83769 29.6666 10.6667 29.6666H13.3333V40.3333H8C7.29276 40.3333 6.61448 40.0524 6.11438 39.5523C5.61429 39.0522 5.33333 38.3739 5.33333 37.6666C5.33333 36.9594 5.05238 36.2811 4.55228 35.781C4.05219 35.2809 3.37391 35 2.66667 35C1.95942 35 1.28115 35.2809 0.781049 35.781C0.280952 36.2811 0 36.9594 0 37.6666C0 39.7884 0.842855 41.8232 2.34315 43.3235C3.84344 44.8238 5.87827 45.6666 8 45.6666H13.3333V51C13.3333 51.7072 13.6143 52.3855 14.1144 52.8856C14.6145 53.3857 15.2928 53.6666 16 53.6666C16.7072 53.6666 17.3855 53.3857 17.8856 52.8856C18.3857 52.3855 18.6667 51.7072 18.6667 51V45.6666H21.3333C24.1623 45.6666 26.8754 44.5428 28.8758 42.5424C30.8762 40.5421 32 37.829 32 35C32 32.171 30.8762 29.4579 28.8758 27.4575C26.8754 25.4571 24.1623 24.3333 21.3333 24.3333ZM13.3333 24.3333H10.6667C9.25218 24.3333 7.89563 23.7714 6.89543 22.7712C5.89524 21.771 5.33333 20.4145 5.33333 19C5.33333 17.5855 5.89524 16.2289 6.89543 15.2287C7.89563 14.2285 9.25218 13.6666 10.6667 13.6666H13.3333V24.3333ZM21.3333 40.3333H18.6667V29.6666H21.3333C22.7478 29.6666 24.1044 30.2285 25.1046 31.2287C26.1048 32.2289 26.6667 33.5855 26.6667 35C26.6667 36.4145 26.1048 37.771 25.1046 38.7712C24.1044 39.7714 22.7478 40.3333 21.3333 40.3333Z" fill="#A32B2A"/>
</svg>
