<svg width="40" height="20" viewBox="0 0 40 20" fill="none" xmlns="http://www.w3.org/2000/svg">
<path id="Vector" d="M38.3827 14.7067H36.6449C36.4642 14.7067 36.318 14.5604 36.318 14.3798V12.7409C36.318 11.8505 35.591 11.1236 34.7006 11.1236H33.3629C33.1865 11.1236 33.036 10.9687 33.036 10.7881C33.036 9.89766 32.309 9.17072 31.4186 9.17072H30.1927C30.0078 9.17072 29.8658 9.02877 29.8658 8.84381V7.82007C29.8658 6.92967 29.1389 6.20273 28.2485 6.20273C26.657 6.20273 25.1773 5.48439 24.1922 4.23697L21.835 1.24318C21.5124 0.83024 21.0221 0.597963 20.5059 0.623772C19.9897 0.640977 19.5252 0.899063 19.2327 1.3249L13.0988 10.2031L11.2191 9.51483C11.1933 9.50623 11.1632 9.49763 11.1331 9.48903C10.0749 9.26105 8.98666 9.57505 8.2124 10.3321L0.19023 18.2769C0.0052679 18.4618 -0.0506508 18.7371 0.0482822 18.9823C0.142914 19.2232 0.379493 19.378 0.64188 19.378H39.3548C39.7118 19.378 40 19.0898 40 18.7328V16.324C40 15.4336 39.2731 14.7067 38.3827 14.7067ZM35.0275 12.7452V14.3841C35.0275 15.2745 35.7545 16.0014 36.6449 16.0014H38.3827C38.5676 16.0014 38.7096 16.1433 38.7096 16.3283V18.0919H34.0081V12.414H34.7006C34.877 12.414 35.0275 12.5645 35.0275 12.7452ZM20.2994 2.05185C20.3812 1.93571 20.493 1.9142 20.5489 1.9099C20.6091 1.9099 20.7253 1.9228 20.8199 2.03894L23.1771 5.03704C24.4073 6.59846 26.2569 7.49316 28.2485 7.49316C28.4248 7.49316 28.5754 7.64371 28.5754 7.82007V8.84381C28.5754 9.73421 29.3023 10.4611 30.1927 10.4611H31.4186C31.595 10.4611 31.7455 10.6117 31.7455 10.7881C31.7455 11.4548 32.1456 12.0269 32.7177 12.2764V18.0876H30.3476V17.2015C30.3476 15.7691 29.1819 14.6034 27.7495 14.6034C27.0312 14.6034 26.4419 14.0184 26.4419 13.2958V12.0011C26.4419 11.644 26.1537 11.3558 25.7967 11.3558C25.4396 11.3558 25.1515 11.644 25.1515 12.0011V13.2958C25.1515 14.7282 26.3171 15.8939 27.7495 15.8939C28.4679 15.8939 29.0572 16.4789 29.0572 17.2015V18.0876H9.22324L20.2994 2.05185ZM9.12001 11.2526C9.57166 10.8096 10.2083 10.6203 10.8234 10.7407L12.3418 11.2999L7.65322 18.0876H2.2119L9.12001 11.2526Z" fill="black"/>
</svg>
