<svg width="30" height="31" viewBox="0 0 30 31" fill="none" xmlns="http://www.w3.org/2000/svg">
<g id="facebook-square">
<path id="Vector" d="M13.3684 11.4863V13.2076H12.1084V15.3113H13.3684V21.5651H15.9584V15.3113H17.6959C17.6959 15.3113 17.8596 14.3026 17.9384 13.1988H15.9684V11.7613C15.9684 11.5451 16.2509 11.2563 16.5309 11.2563H17.9409V9.06506H16.0221C13.3046 9.06506 13.3684 11.1713 13.3684 11.4863Z" fill="white"/>
<path id="Vector_2" d="M7.5 5.31506C6.83696 5.31506 6.20107 5.57846 5.73223 6.0473C5.26339 6.51614 5 7.15202 5 7.81506V22.8151C5 23.4781 5.26339 24.114 5.73223 24.5828C6.20107 25.0517 6.83696 25.3151 7.5 25.3151H22.5C23.163 25.3151 23.7989 25.0517 24.2678 24.5828C24.7366 24.114 25 23.4781 25 22.8151V7.81506C25 7.15202 24.7366 6.51614 24.2678 6.0473C23.7989 5.57846 23.163 5.31506 22.5 5.31506H7.5ZM7.5 2.81506H22.5C23.8261 2.81506 25.0979 3.34185 26.0355 4.27953C26.9732 5.21721 27.5 6.48898 27.5 7.81506V22.8151C27.5 24.1411 26.9732 25.4129 26.0355 26.3506C25.0979 27.2883 23.8261 27.8151 22.5 27.8151H7.5C6.17392 27.8151 4.90215 27.2883 3.96447 26.3506C3.02678 25.4129 2.5 24.1411 2.5 22.8151V7.81506C2.5 6.48898 3.02678 5.21721 3.96447 4.27953C4.90215 3.34185 6.17392 2.81506 7.5 2.81506V2.81506Z" fill="white"/>
</g>
</svg>
