<svg width="121" height="100" viewBox="0 0 121 100" fill="none" xmlns="http://www.w3.org/2000/svg">
<path d="M63.1519 26.4303C62.9991 26.1096 62.7588 25.8385 62.4586 25.6484C62.1585 25.4584 61.8107 25.357 61.4555 25.356H19.2073C18.853 25.3579 18.5066 25.4597 18.2076 25.6496C17.9085 25.8394 17.6691 26.1097 17.5166 26.4294C17.3641 26.7491 17.3048 27.1053 17.3455 27.4572C17.3861 27.809 17.5251 28.1423 17.7465 28.4188L38.4796 53.911V70.8744H33.7675C33.2676 70.8744 32.7882 71.073 32.4348 71.4264C32.0813 71.7799 31.8827 72.2593 31.8827 72.7592C31.8827 73.2591 32.0813 73.7385 32.4348 74.092C32.7882 74.4455 33.2676 74.644 33.7675 74.644H46.9518C47.4517 74.644 47.9311 74.4455 48.2846 74.092C48.6381 73.7385 48.8366 73.2591 48.8366 72.7592C48.8366 72.2593 48.6381 71.7799 48.2846 71.4264C47.9311 71.073 47.4517 70.8744 46.9518 70.8744H42.2398V53.911L56.244 36.6366C56.3025 36.5716 56.356 36.5023 56.4042 36.4293L62.9163 28.4188C63.1384 28.143 63.2782 27.8101 63.3199 27.4584C63.3616 27.1067 63.3033 26.7504 63.1519 26.4303ZM54.001 33.423H26.6712L23.156 29.1162H57.4974L54.001 33.423Z" fill="#A32B2A"/>
<path d="M94.7037 71.3315H62.6049C61.642 71.3315 61 71.9735 61 72.9364C61 73.8994 61.642 74.5414 62.6049 74.5414H94.7037C95.6667 74.5414 96.3087 73.8994 96.3087 72.9364C96.3087 71.9735 95.6667 71.3315 94.7037 71.3315Z" fill="#A32B2A"/>
<path d="M97.9132 44.0474C96.7897 44.0474 95.6662 44.3684 94.7033 45.0104V44.0474C94.7033 43.0845 94.0613 42.4425 93.0983 42.4425H64.2094C63.2465 42.4425 62.6045 43.0845 62.6045 44.0474V53.9981C62.6045 62.6647 69.8267 69.7265 78.6539 69.7265C85.3946 69.7265 91.1724 65.7141 93.5798 59.9363C94.7033 61.0598 96.1477 61.7018 97.9132 61.7018C101.444 61.7018 104.333 58.8129 104.333 55.282V50.4672C104.333 46.9363 101.444 44.0474 97.9132 44.0474ZM101.123 55.282C101.123 57.0475 99.6786 58.4919 97.9132 58.4919C96.1477 58.4919 94.7033 57.0475 94.7033 55.282V53.9981V50.4672C94.7033 48.7018 96.1477 47.2573 97.9132 47.2573C99.6786 47.2573 101.123 48.7018 101.123 50.4672V55.282Z" fill="#A32B2A"/>
</svg>
