<svg width="30" height="31" viewBox="0 0 30 31" fill="none" xmlns="http://www.w3.org/2000/svg">
<g id="instagram">
<path id="Vector" d="M20.0212 2.81506H9.93375C7.96269 2.81738 6.07304 3.60149 4.67941 4.99536C3.28578 6.38923 2.50198 8.279 2.5 10.2501L2.5 20.3376C2.50232 22.3086 3.28643 24.1983 4.6803 25.5919C6.07416 26.9855 7.96394 27.7693 9.935 27.7713H20.0225C21.9936 27.769 23.8832 26.9849 25.2768 25.591C26.6705 24.1972 27.4543 22.3074 27.4562 20.3363V10.2488C27.4539 8.27775 26.6698 6.38811 25.276 4.99448C23.8821 3.60084 21.9923 2.81705 20.0212 2.81506V2.81506ZM24.9463 20.3363C24.9463 20.9831 24.8189 21.6235 24.5714 22.221C24.3239 22.8186 23.9611 23.3615 23.5038 23.8188C23.0464 24.2761 22.5035 24.6389 21.906 24.8864C21.3084 25.1339 20.668 25.2613 20.0212 25.2613H9.93375C8.62778 25.261 7.3754 24.742 6.45206 23.8184C5.52871 22.8948 5.01 21.6423 5.01 20.3363V10.2488C5.01033 8.94284 5.52936 7.69047 6.45294 6.76712C7.37652 5.84377 8.62903 5.32506 9.935 5.32506H20.0225C21.3285 5.32539 22.5808 5.84442 23.5042 6.768C24.4275 7.69159 24.9463 8.94409 24.9463 10.2501V20.3376V20.3363Z" fill="white"/>
<path id="Vector_2" d="M14.9779 8.83887C13.2672 8.84151 11.6273 9.52235 10.4178 10.7321C9.20822 11.9419 8.5277 13.5819 8.52539 15.2926C8.52737 17.0038 9.20792 18.6443 10.4178 19.8544C11.6276 21.0644 13.268 21.7453 14.9791 21.7476C16.6905 21.7456 18.3312 21.0649 19.5413 19.8548C20.7514 18.6447 21.4322 17.004 21.4341 15.2926C21.4315 13.5815 20.7503 11.9412 19.54 10.7316C18.3297 9.522 16.689 8.84177 14.9779 8.84012V8.83887ZM14.9779 19.2376C13.9319 19.2376 12.9288 18.8221 12.1892 18.0825C11.4496 17.3429 11.0341 16.3398 11.0341 15.2939C11.0341 14.2479 11.4496 13.2448 12.1892 12.5052C12.9288 11.7656 13.9319 11.3501 14.9779 11.3501C16.0238 11.3501 17.0269 11.7656 17.7665 12.5052C18.5061 13.2448 18.9216 14.2479 18.9216 15.2939C18.9216 16.3398 18.5061 17.3429 17.7665 18.0825C17.0269 18.8221 16.0238 19.2376 14.9779 19.2376Z" fill="white"/>
<path id="Vector_3" d="M21.4447 10.4338C22.2987 10.4338 22.9909 9.74153 22.9909 8.88756C22.9909 8.03359 22.2987 7.34131 21.4447 7.34131C20.5907 7.34131 19.8984 8.03359 19.8984 8.88756C19.8984 9.74153 20.5907 10.4338 21.4447 10.4338Z" fill="white"/>
</g>
</svg>
