<svg width="58" height="49" viewBox="0 0 58 49" fill="none" xmlns="http://www.w3.org/2000/svg">
<path d="M58 19.5302C58 14.1921 53.6718 9.86381 48.3307 9.86381C45.1472 9.86381 42.3458 11.4233 40.5848 13.8006C37.5876 10.227 34.1026 8.01434 30.3543 7.57716L32.625 0.197388H25.375L27.6457 7.57716C20.242 8.44064 13.8533 16.2764 10.2856 27.672C9.90785 26.636 9.66643 25.5318 9.66643 24.3638V9.86381C9.66643 4.52564 5.33818 0.197388 0 0.197388V5.03096C2.66945 5.03096 4.83358 7.19436 4.83358 9.86381V24.3638C4.83358 28.1374 6.2872 31.5645 8.64708 34.1412C7.75968 38.6253 7.25 43.461 7.25 48.5302H50.75C50.75 42.8426 50.1359 37.4269 49.0317 32.5012L55.1682 26.3655C56.9169 24.6168 58 22.1997 58 19.5302ZM51.7505 22.9479L47.5477 27.1514C46.4805 23.8592 45.1798 20.8787 43.6842 18.2825C44.2366 16.2242 46.1006 14.6981 48.3307 14.6981C50.998 14.6981 53.1664 16.8644 53.1664 19.531C53.1664 20.8186 52.664 22.0344 51.7505 22.9479Z" fill="#A32B2A"/>
</svg>
