<svg width="15" height="26" viewBox="0 0 15 26" fill="none" xmlns="http://www.w3.org/2000/svg">
<g id="Group 1740">
<path id="Vector" d="M11.2709 14.952V13.5663C11.2709 13.1997 10.9739 12.9033 10.6079 12.9033H1.32599C0.960013 12.9033 0.662993 13.1997 0.662993 13.5663V24.1742H0V25.5002H1.32599H10.6079H13.2599V24.1742H11.2709V23.4515C13.1491 23.1346 14.5858 21.501 14.5858 19.5332V18.8703C14.5858 16.9032 13.1491 15.2695 11.2709 14.952ZM1.98898 24.1742V14.2293H9.94489V15.5553V22.8482V24.1742H1.98898ZM13.2599 19.5332C13.2599 20.7664 12.4132 21.8066 11.2709 22.101V16.3025C12.4132 16.5969 13.2599 17.6371 13.2599 18.8703V19.5332Z" fill="black"/>
<path id="Vector_2" d="M1.7822 2.68522C2.09181 3.10357 2.31524 3.40523 2.31524 4.08149C2.31524 4.7584 2.09181 5.06139 1.7822 5.47907C1.42882 5.95643 0.989258 6.55047 0.989258 7.66562C0.989258 8.78011 1.42882 9.37416 1.7822 9.85151C2.09181 10.2699 2.31524 10.5722 2.31524 11.2491H3.64123C3.64123 10.1339 3.20166 9.53991 2.84829 9.06255C2.53867 8.6442 2.31524 8.34254 2.31524 7.66562C2.31524 6.98871 2.53867 6.68572 2.84829 6.26804C3.20166 5.79068 3.64123 5.19664 3.64123 4.08149C3.64123 2.967 3.20166 2.37362 2.84829 1.89626C2.53867 1.47791 2.31524 1.17625 2.31524 0.5H0.989258C0.989258 1.61449 1.42882 2.20787 1.7822 2.68522Z" fill="black"/>
<path id="Vector_3" d="M4.30762 7.6666C4.30762 8.78109 4.74718 9.37513 5.10056 9.85249C5.41017 10.2708 5.6336 10.5732 5.6336 11.2501H6.95959C6.95959 10.1349 6.52002 9.54088 6.16665 9.06353C5.85703 8.64518 5.6336 8.34352 5.6336 7.6666C5.6336 6.98969 5.85703 6.6867 6.16665 6.26901C6.52002 5.79166 6.95959 5.19762 6.95959 4.08246C6.95959 2.96797 6.52002 2.37459 6.16665 1.89724C5.85703 1.47889 5.6336 1.17723 5.6336 0.500977H4.30762C4.30762 1.61547 4.74718 2.20885 5.10056 2.6862C5.41017 3.10455 5.6336 3.40621 5.6336 4.08246C5.6336 4.75938 5.41017 5.06237 5.10056 5.48005C4.74718 5.95674 4.30762 6.55145 4.30762 7.6666Z" fill="black"/>
<path id="Vector_4" d="M7.61914 7.6666C7.61914 8.78109 8.0587 9.37513 8.41208 9.85249C8.7217 10.2708 8.94513 10.5732 8.94513 11.2501H10.2711C10.2711 10.1349 9.83155 9.54088 9.47817 9.06353C9.16855 8.64518 8.94513 8.34352 8.94513 7.6666C8.94513 6.98969 9.16855 6.6867 9.47817 6.26901C9.83155 5.79166 10.2711 5.19762 10.2711 4.08246C10.2711 2.96797 9.83155 2.37459 9.47817 1.89724C9.16855 1.47889 8.94513 1.17723 8.94513 0.500977H7.61914C7.61914 1.61547 8.0587 2.20885 8.41208 2.6862C8.7217 3.10455 8.94513 3.40621 8.94513 4.08246C8.94513 4.75938 8.7217 5.06237 8.41208 5.48005C8.0587 5.95674 7.61914 6.55145 7.61914 7.6666Z" fill="black"/>
</g>
</svg>
