<svg width="24" height="24" viewBox="0 0 24 24" fill="none" xmlns="http://www.w3.org/2000/svg">
<g id="Layer_1_1_">
<path id="Vector" d="M14.8727 6.54663H3.9668V7.53808H14.8727V6.54663Z" fill="black"/>
<path id="Vector_2" d="M14.8727 9.52148H3.9668V10.5129H14.8727V9.52148Z" fill="black"/>
<path id="Vector_3" d="M12.3941 12.4958H3.9668V13.4873H12.3941V12.4958Z" fill="black"/>
<path id="Vector_4" d="M9.91549 15.4695H3.9668V16.4609H9.91549V15.4695Z" fill="black"/>
<path id="Vector_5" d="M9.91549 18.4448H3.9668V19.4363H9.91549V18.4448Z" fill="black"/>
<path id="Vector_6" d="M18.8375 8.82035V3.8631L15.077 0.102539H0V23.8973H18.8375V15.1795L24 10.017L20.8204 6.83745L18.8375 8.82035ZM18.3418 10.718L20.1195 12.4956L14.1708 18.4443H12.3931V16.6667L18.3418 10.718ZM15.3675 1.79494L17.1451 3.57261H15.3675V1.79494ZM17.8461 22.9059H0.991449V1.09399H14.376V4.56406H17.8461V9.8118L11.4017 16.2562V19.4358H14.5812L17.8461 16.1709V22.9059ZM20.8204 11.7947L19.0428 10.017L20.8204 8.23936L22.5981 10.017L20.8204 11.7947Z" fill="black"/>
</g>
</svg>
