<svg width="40" height="14" viewBox="0 0 40 14" fill="none" xmlns="http://www.w3.org/2000/svg">
<g id="Group 1737">
<g id="Group 1728">
<g id="Group 1727">
<g id="Group 1726">
<g id="Group 1725">
<path id="Path 332" d="M32.7872 5.16784C30.8631 5.16784 29.846 4.20916 29.028 3.43819C28.2658 2.72048 27.6645 2.15376 26.3909 2.15376C25.1173 2.15376 24.516 2.72255 23.7538 3.43819C22.9368 4.20865 21.9197 5.16784 19.9967 5.16784C18.0736 5.16784 17.0565 4.20916 16.239 3.43819C15.4778 2.72048 14.877 2.15376 13.6018 2.15376C12.3267 2.15376 11.7274 2.72255 10.9647 3.43819C10.1472 4.20865 9.13064 5.16784 7.20761 5.16784C5.28458 5.16784 4.26849 4.20916 3.45149 3.43819C2.69035 2.72048 2.08951 2.15376 0.816969 2.15376C0.60029 2.15376 0.392506 2.06768 0.23929 1.91446C0.0860743 1.76125 0 1.55345 0 1.33677C0 1.12009 0.0860743 0.912281 0.23929 0.759065C0.392506 0.60585 0.60029 0.519775 0.816969 0.519775C2.73897 0.519775 3.75609 1.47845 4.57308 2.24942C5.33371 2.96713 5.93455 3.53385 7.20761 3.53385C8.48067 3.53385 9.08202 2.96506 9.84472 2.24942C10.6617 1.47845 11.6788 0.519775 13.6018 0.519775C15.5249 0.519775 16.5425 1.47845 17.36 2.24942C18.1212 2.96713 18.7225 3.53385 19.9972 3.53385C21.2718 3.53385 21.8716 2.96506 22.6343 2.24942C23.4507 1.47845 24.4679 0.519775 26.3909 0.519775C28.3139 0.519775 29.3321 1.47845 30.1496 2.2489C30.9113 2.96713 31.5131 3.53385 32.7867 3.53385C34.0603 3.53385 34.6632 2.96506 35.4238 2.2489C36.2413 1.47845 37.259 0.519775 39.1825 0.519775C39.3992 0.519775 39.607 0.60585 39.7602 0.759065C39.9134 0.912281 39.9995 1.12009 39.9995 1.33677C39.9995 1.55345 39.9134 1.76125 39.7602 1.91446C39.607 2.06768 39.3992 2.15376 39.1825 2.15376C37.9079 2.15376 37.3065 2.72255 36.5453 3.43819C35.7294 4.20865 34.7108 5.16784 32.7872 5.16784Z" fill="black"/>
</g>
</g>
</g>
</g>
<g id="Group 1736">
<g id="Group 1735">
<g id="Group 1734">
<g id="Group 1733">
<path id="Path 334" d="M32.7875 13.4804C30.8634 13.4804 29.8463 12.5212 29.0283 11.7502C28.2661 11.033 27.6647 10.4663 26.3911 10.4663C25.1176 10.4663 24.5162 11.0351 23.754 11.7502C22.937 12.5207 21.9199 13.4804 19.9969 13.4804C18.0739 13.4804 17.0567 12.5212 16.2392 11.7502C15.4781 11.033 14.8772 10.4663 13.6021 10.4663C12.327 10.4663 11.7277 11.0351 10.965 11.7502C10.1475 12.5207 9.1309 13.4804 7.20786 13.4804C5.28483 13.4804 4.26874 12.5212 3.45175 11.7502C2.6906 11.033 2.08976 10.4663 0.817222 10.4663C0.600473 10.4663 0.392617 10.3802 0.239353 10.2269C0.0860889 10.0737 0 9.86578 0 9.64903C0 9.43228 0.0860889 9.22441 0.239353 9.07115C0.392617 8.91788 0.600473 8.83179 0.817222 8.83179C2.73922 8.83179 3.75634 9.79097 4.57334 10.5619C5.33397 11.2797 5.9348 11.8459 7.20786 11.8459C8.48092 11.8459 9.08228 11.2771 9.84498 10.5619C10.662 9.79149 11.6791 8.83179 13.6021 8.83179C15.5251 8.83179 16.5428 9.79097 17.3603 10.5619C18.1214 11.2797 18.7228 11.8459 19.9974 11.8459C21.272 11.8459 21.8718 11.2771 22.6345 10.5619C23.451 9.79149 24.4681 8.83179 26.3911 8.83179C28.3142 8.83179 29.3323 9.79097 30.1498 10.5609C30.9115 11.2791 31.5134 11.8459 32.787 11.8459C34.0605 11.8459 34.6634 11.2771 35.4241 10.5614C36.2416 9.79149 37.2592 8.83179 39.1828 8.83179C39.3995 8.83179 39.6074 8.91788 39.7606 9.07115C39.9139 9.22441 40 9.43228 40 9.64903C40 9.86578 39.9139 10.0737 39.7606 10.2269C39.6074 10.3802 39.3995 10.4663 39.1828 10.4663C37.9082 10.4663 37.3067 11.0351 36.5456 11.7502C35.7296 12.5212 34.711 13.4804 32.7875 13.4804Z" fill="black"/>
</g>
</g>
</g>
</g>
</g>
</svg>
