<svg width="24" height="28" viewBox="0 0 24 28" fill="none" xmlns="http://www.w3.org/2000/svg">
<g id="Group 1739">
<path id="Vector" d="M23.7765 13.7535C22.2713 6.95543 15.0167 7.25976 11.2414 12.8693C9.48945 10.9652 6.52428 9.74787 4.176 10.558C4.15567 10.5611 4.13612 10.5681 4.11843 10.5786C-0.179211 11.9851 -0.874236 17.7468 0.931184 21.6414C2.63379 25.8075 7.63879 29.3525 11.7185 26.5272C13.7542 27.8843 16.1724 27.6005 18.2986 26.3174C22.2138 24.0761 24.7964 18.1293 23.7765 13.7535ZM19.1746 9.57103C18.7633 11.6026 19.1334 12.3141 18.0888 14.7076C17.6333 15.8272 16.9674 16.8491 16.1271 17.718C15.4262 18.4491 14.8385 19.2808 14.3834 20.1856C14.2619 17.7405 13.358 15.3991 11.8048 13.5068C13.7748 10.5951 16.7194 9.03639 19.1746 9.57103ZM5.62774 25.8979C3.86173 24.8312 2.48716 23.223 1.70846 21.3124C0.149795 17.9566 0.503476 13.0749 3.97038 11.5039C4.26237 13.2929 3.97038 13.9715 4.92449 16.2293C5.37497 17.3299 6.04048 18.3296 6.88208 19.1698C7.66671 19.9396 8.28534 20.8619 8.69983 21.88C9.65395 24.0596 9.2756 24.7176 9.6375 26.5847C8.26218 26.8722 6.829 26.6267 5.62774 25.8979ZM10.4148 26.3503C10.0981 24.5243 10.4148 23.8293 9.44421 21.5633C8.98908 20.4565 8.31641 19.4524 7.46606 18.6105C6.68817 17.8401 6.07529 16.9193 5.66476 15.9044C4.71886 13.7453 5.08488 13.0914 4.73943 11.2531C8.21866 10.5539 11.2866 13.3094 12.6849 16.5295C14.2395 19.8854 13.8858 24.7711 10.4148 26.3339V26.3503ZM12.4012 25.9802C12.646 25.7342 12.869 25.4672 13.0674 25.1823C13.0341 25.5361 12.9806 25.8876 12.907 26.2352C12.7324 26.1626 12.5633 26.0774 12.4012 25.9802ZM22.148 20.5146C20.6715 23.9568 17.3362 27.1769 13.6719 26.4778C14.1079 24.4215 13.7131 23.7018 14.7741 21.2795C15.2301 20.1602 15.896 19.1383 16.7358 18.2691C17.6367 17.3352 18.3513 16.2381 18.8414 15.0366C19.9189 12.5691 19.5899 11.8124 19.9601 9.81778C23.6902 11.5368 23.7889 16.8996 22.148 20.5146Z" fill="black"/>
<path id="Vector_2" d="M9.77988 7.58655C9.95657 7.58655 10.1333 7.49821 10.3099 7.40986C10.7517 7.14483 10.84 6.61476 10.575 6.17304C9.69154 4.84787 9.69154 3.16933 10.575 1.84416C10.84 1.40243 10.7517 0.872367 10.3099 0.607333C9.86823 0.3423 9.33816 0.430644 9.07313 0.872367C7.8363 2.81595 7.8363 5.28959 9.07313 7.14483C9.24981 7.40986 9.51485 7.58655 9.77988 7.58655Z" fill="black"/>
<path id="Vector_3" d="M6.24668 7.58685C6.42337 7.58685 6.60006 7.4985 6.77675 7.41016C7.21847 7.14513 7.30681 6.61506 7.04178 6.17334C6.15833 4.84817 6.15833 3.16962 7.04178 1.84445C7.30681 1.40273 7.21847 0.872665 6.77675 0.607632C6.33502 0.430943 5.80496 0.519287 5.53992 0.872665C4.3031 2.81624 4.3031 5.28989 5.53992 7.14513C5.71661 7.41016 5.98165 7.58685 6.24668 7.58685Z" fill="black"/>
<path id="Vector_4" d="M13.317 7.58655C13.4937 7.58655 13.6704 7.49821 13.8471 7.40986C14.2888 7.14483 14.3771 6.61476 14.1121 6.17304C13.2286 4.84787 13.2286 3.16933 14.1121 1.84416C14.3771 1.40243 14.2888 0.872367 13.8471 0.607333C13.4053 0.3423 12.8753 0.430644 12.6102 0.872367C11.3734 2.81595 11.3734 5.28959 12.6102 7.14483C12.7869 7.40986 13.052 7.58655 13.317 7.58655Z" fill="black"/>
</g>
</svg>
