<?xml version="1.0" standalone="no"?>
<!DOCTYPE svg PUBLIC "-//W3C//DTD SVG 20010904//EN"
 "http://www.w3.org/TR/2001/REC-SVG-20010904/DTD/svg10.dtd">
<svg version="1.0" xmlns="http://www.w3.org/2000/svg"
 width="920.000000pt" height="920.000000pt" viewBox="0 0 920.000000 920.000000"
 preserveAspectRatio="xMidYMid meet">

<g transform="translate(0.000000,920.000000) scale(0.100000,-0.100000)"
fill="#000000" stroke="none">
<path d="M0 4600 l0 -4600 4600 0 4600 0 0 4600 0 4600 -4600 0 -4600 0 0
-4600z m7160 3717 c636 -131 1098 -633 1170 -1272 8 -72 10 -771 7 -2510 -3
-2685 3 -2459 -72 -2681 -146 -437 -482 -773 -919 -919 -222 -75 4 -69 -2681
-72 -2501 -4 -2513 -4 -2690 37 -484 112 -881 476 -1040 954 -75 222 -69 -4
-72 2681 -4 2501 -4 2513 37 2690 121 520 545 949 1060 1072 174 42 139 41
2680 39 2272 -2 2441 -3 2520 -19z"/>
<path d="M2175 7755 c-5 -2 -44 -11 -85 -20 -294 -67 -545 -316 -626 -620 -18
-67 -19 -159 -19 -2515 0 -2356 1 -2448 19 -2515 39 -147 105 -263 215 -379
116 -120 250 -201 406 -242 67 -18 159 -19 2515 -19 2356 0 2448 1 2515 19
301 80 541 320 621 621 18 67 19 159 19 2515 0 2356 -1 2448 -19 2515 -41 156
-122 290 -242 406 -113 107 -227 173 -374 215 -63 18 -156 19 -2500 21 -1339
1 -2439 0 -2445 -2z m3101 -876 c65 -25 129 -83 158 -144 13 -26 22 -77 28
-145 9 -126 12 -143 44 -243 76 -242 267 -445 506 -537 97 -38 151 -49 290
-59 91 -7 115 -13 160 -38 59 -33 119 -105 137 -163 29 -99 0 -218 -71 -287
-83 -79 -151 -97 -318 -83 -178 16 -343 59 -495 131 -72 33 -209 115 -224 133
-8 9 -17 16 -22 16 -5 0 -9 -400 -9 -922 0 -983 -1 -1009 -50 -1184 -69 -247
-183 -439 -374 -629 -132 -131 -223 -199 -361 -268 -230 -115 -463 -165 -709
-154 -555 25 -1044 362 -1263 872 -47 110 -88 260 -103 382 -17 131 -8 357 19
478 109 499 471 906 946 1064 137 45 227 62 377 68 163 7 204 -4 280 -75 77
-71 108 -189 77 -292 -18 -58 -78 -130 -137 -163 -46 -26 -69 -31 -160 -38
-136 -9 -191 -21 -291 -59 -225 -87 -421 -288 -497 -511 -53 -154 -65 -284
-39 -434 49 -278 230 -518 480 -636 339 -158 736 -86 991 182 105 112 173 231
217 387 l22 77 5 1545 c5 1514 5 1546 25 1585 46 94 155 163 257 164 26 1 73
-9 104 -20z"/>
</g>
</svg>
