<svg width="30" height="26" viewBox="0 0 30 26" fill="none" xmlns="http://www.w3.org/2000/svg">
<g id="Group 1740">
<path id="Vector" d="M7.96875 18.1296V17.1499C7.96875 16.8907 7.75875 16.6812 7.5 16.6812H0.9375C0.67875 16.6812 0.46875 16.8907 0.46875 17.1499V24.6499H0V25.5874H0.9375H7.5H9.375V24.6499H7.96875V24.139C9.29672 23.9149 10.3125 22.7599 10.3125 21.3687V20.8999C10.3125 19.5091 9.29672 18.3541 7.96875 18.1296ZM1.40625 24.6499V17.6187H7.03125V18.5562V23.7124V24.6499H1.40625ZM9.375 21.3687C9.375 22.2405 8.77641 22.976 7.96875 23.1841V19.0844C8.77641 19.2926 9.375 20.028 9.375 20.8999V21.3687Z" fill="black"/>
<path id="Vector_2" d="M19.2188 12.4624H18.2812V11.5249C18.2812 11.2657 18.0712 11.0562 17.8125 11.0562H12.1875C11.9288 11.0562 11.7188 11.2657 11.7188 11.5249V12.4624H10.7812C10.5225 12.4624 10.3125 12.6719 10.3125 12.9312V14.8062C10.3125 15.0654 10.5225 15.2749 10.7812 15.2749H11.2706L11.7192 25.1397C11.7305 25.3901 11.9367 25.5874 12.1875 25.5874H17.8125C18.0633 25.5874 18.2695 25.3901 18.2808 25.1397L18.7294 15.2749H19.2188C19.4775 15.2749 19.6875 15.0654 19.6875 14.8062V12.9312C19.6875 12.6719 19.4775 12.4624 19.2188 12.4624ZM17.3644 24.6499H12.6356L12.2095 15.2749H17.7909L17.3644 24.6499ZM18.75 14.3374H18.2812H11.7188H11.25V13.3999H12.1875C12.4462 13.3999 12.6562 13.1904 12.6562 12.9312V11.9937H17.3438V12.9312C17.3438 13.1904 17.5538 13.3999 17.8125 13.3999H18.75V14.3374Z" fill="black"/>
<path id="Vector_3" d="M15 20.8999C16.0341 20.8999 16.875 20.059 16.875 19.0249C16.875 17.9908 16.0341 17.1499 15 17.1499C13.9659 17.1499 13.125 17.9908 13.125 19.0249C13.125 20.059 13.9659 20.8999 15 20.8999ZM15 18.0874C15.517 18.0874 15.9375 18.5079 15.9375 19.0249C15.9375 19.5419 15.517 19.9624 15 19.9624C14.483 19.9624 14.0625 19.5419 14.0625 19.0249C14.0625 18.5079 14.483 18.0874 15 18.0874Z" fill="black"/>
<path id="Vector_4" d="M25.3125 19.4937C26.3466 19.4937 27.1875 18.6527 27.1875 17.6187C27.1875 16.5846 26.3466 15.7437 25.3125 15.7437C24.2784 15.7437 23.4375 16.5846 23.4375 17.6187C23.4375 18.6527 24.2784 19.4937 25.3125 19.4937ZM25.3125 16.6812C25.8295 16.6812 26.25 17.1016 26.25 17.6187C26.25 18.1357 25.8295 18.5562 25.3125 18.5562C24.7955 18.5562 24.375 18.1357 24.375 17.6187C24.375 17.1016 24.7955 16.6812 25.3125 16.6812Z" fill="black"/>
<path id="Vector_5" d="M29.5312 11.525C29.79 11.525 30 11.3155 30 11.0563C30 8.63001 28.1466 6.62845 25.7812 6.39267V4.02501C25.7812 3.90032 25.732 3.78126 25.6439 3.6936L22.3627 0.412354L21.6998 1.07517L24.8438 4.21907V6.39267C22.4784 6.62892 20.625 8.63001 20.625 11.0563C20.625 11.3155 20.835 11.525 21.0938 11.525H21.1092L21.5466 24.65H20.1562V25.5875H22.0312H28.5938H30V24.65H29.0784L29.5158 11.525H29.5312ZM29.0334 10.5875H27.3816L28.6392 9.32985C28.8398 9.71517 28.9772 10.1389 29.0334 10.5875ZM28.0945 8.54892L26.0559 10.5875H23.6316L26.6616 7.55751C27.2152 7.77173 27.7036 8.11532 28.0945 8.54892ZM25.3125 7.30626C25.4011 7.30626 25.4878 7.31235 25.575 7.31845L22.3059 10.5875H21.5916C21.8231 8.74064 23.4037 7.30626 25.3125 7.30626ZM28.2811 20.4313H22.3439L22.1564 14.8063H28.4686L28.2811 20.4313ZM22.4845 24.65L22.3753 21.3688H28.2497L28.1405 24.65H22.4845ZM28.5 13.8688H22.125L22.0467 11.525H28.5778L28.5 13.8688Z" fill="black"/>
<path id="Vector_6" d="M1.2618 9.45687C1.4807 9.75265 1.63867 9.96593 1.63867 10.4441C1.63867 10.9226 1.4807 11.1369 1.2618 11.4322C1.01195 11.7697 0.701172 12.1897 0.701172 12.9781C0.701172 13.7661 1.01195 14.1861 1.2618 14.5236C1.4807 14.8194 1.63867 15.0331 1.63867 15.5117H2.57617C2.57617 14.7233 2.26539 14.3033 2.01555 13.9658C1.79664 13.67 1.63867 13.4567 1.63867 12.9781C1.63867 12.4995 1.79664 12.2853 2.01555 11.99C2.26539 11.6525 2.57617 11.2325 2.57617 10.4441C2.57617 9.65608 2.26539 9.23655 2.01555 8.89905C1.79664 8.60327 1.63867 8.38999 1.63867 7.91187H0.701172C0.701172 8.69983 1.01195 9.11937 1.2618 9.45687Z" fill="black"/>
<path id="Vector_7" d="M3.04492 12.9786C3.04492 13.7666 3.3557 14.1866 3.60555 14.5241C3.82445 14.8199 3.98242 15.0336 3.98242 15.5122H4.91992C4.91992 14.7238 4.60914 14.3038 4.3593 13.9663C4.14039 13.6705 3.98242 13.4572 3.98242 12.9786C3.98242 12.5 4.14039 12.2858 4.3593 11.9905C4.60914 11.653 4.91992 11.233 4.91992 10.4445C4.91992 9.65657 4.60914 9.23704 4.3593 8.89954C4.14039 8.60376 3.98242 8.39048 3.98242 7.91235H3.04492C3.04492 8.70032 3.3557 9.11985 3.60555 9.45735C3.82445 9.75314 3.98242 9.96642 3.98242 10.4445C3.98242 10.9231 3.82445 11.1374 3.60555 11.4327C3.3557 11.7697 3.04492 12.1902 3.04492 12.9786Z" fill="black"/>
<path id="Vector_8" d="M5.3877 12.9786C5.3877 13.7666 5.69848 14.1866 5.94832 14.5241C6.16723 14.8199 6.3252 15.0336 6.3252 15.5122H7.2627C7.2627 14.7238 6.95191 14.3038 6.70207 13.9663C6.48316 13.6705 6.3252 13.4572 6.3252 12.9786C6.3252 12.5 6.48316 12.2858 6.70207 11.9905C6.95191 11.653 7.2627 11.233 7.2627 10.4445C7.2627 9.65657 6.95191 9.23704 6.70207 8.89954C6.48316 8.60376 6.3252 8.39048 6.3252 7.91235H5.3877C5.3877 8.70032 5.69848 9.11985 5.94832 9.45735C6.16723 9.75314 6.3252 9.96642 6.3252 10.4445C6.3252 10.9231 6.16723 11.1374 5.94832 11.4327C5.69848 11.7697 5.3877 12.1902 5.3877 12.9786Z" fill="black"/>
</g>
</svg>
