<svg width="30" height="31" viewBox="0 0 30 31" fill="none" xmlns="http://www.w3.org/2000/svg">
<g id="youtube-square">
<path id="Vector" d="M18.6538 10.9725H11.3463C9.9125 10.9725 8.75 12.1225 8.75 13.54V17.1525C8.75 18.5713 9.9125 19.72 11.3463 19.72H18.6538C20.0875 19.72 21.25 18.57 21.25 17.1525V13.54C21.25 12.1213 20.0875 10.9725 18.6538 10.9725ZM16.8988 15.5225L13.48 17.135C13.4591 17.1449 13.436 17.1494 13.4129 17.148C13.3898 17.1466 13.3675 17.1394 13.3479 17.127C13.3283 17.1147 13.3122 17.0976 13.301 17.0774C13.2898 17.0571 13.2838 17.0344 13.2837 17.0113V13.6863C13.284 13.6629 13.2902 13.6399 13.3017 13.6195C13.3133 13.5991 13.3299 13.5821 13.35 13.5699C13.37 13.5578 13.3928 13.551 13.4162 13.5501C13.4396 13.5492 13.4629 13.5544 13.4837 13.565L16.9012 15.2775C16.9237 15.2893 16.9425 15.307 16.9555 15.3288C16.9686 15.3505 16.9753 15.3754 16.9751 15.4008C16.9748 15.4262 16.9675 15.4509 16.9541 15.4724C16.9406 15.4939 16.9215 15.5113 16.8988 15.5225Z" fill="white"/>
<path id="Vector_2" d="M7.5 5.31506C6.83696 5.31506 6.20107 5.57846 5.73223 6.0473C5.26339 6.51614 5 7.15202 5 7.81506V22.8151C5 23.4781 5.26339 24.114 5.73223 24.5828C6.20107 25.0517 6.83696 25.3151 7.5 25.3151H22.5C23.163 25.3151 23.7989 25.0517 24.2678 24.5828C24.7366 24.114 25 23.4781 25 22.8151V7.81506C25 7.15202 24.7366 6.51614 24.2678 6.0473C23.7989 5.57846 23.163 5.31506 22.5 5.31506H7.5ZM7.5 2.81506H22.5C23.8261 2.81506 25.0979 3.34185 26.0355 4.27953C26.9732 5.21721 27.5 6.48898 27.5 7.81506V22.8151C27.5 24.1411 26.9732 25.4129 26.0355 26.3506C25.0979 27.2883 23.8261 27.8151 22.5 27.8151H7.5C6.17392 27.8151 4.90215 27.2883 3.96447 26.3506C3.02678 25.4129 2.5 24.1411 2.5 22.8151V7.81506C2.5 6.48898 3.02678 5.21721 3.96447 4.27953C4.90215 3.34185 6.17392 2.81506 7.5 2.81506V2.81506Z" fill="white"/>
</g>
</svg>
